# xmcd
#
# Track frame offsets:
#	150
#	17970
#	40465
#	64694
#	95561
#	111610
#	131035
#	152681
#	163943
#	180307
#	203043
#	223721
#
# Disc length: 3663 seconds
#
# Revision: 1
# Processed by: cddbd v1.5.2PL0 Copyright (c) Steve Scherf et al.
# Submitted via: audiograbber 1.83.01
#
DISCID=b00e4d0c
DTITLE=Front 242 - Parted Tragedy  (Live)
DYEAR=1991
DGENRE=EBM
TTITLE0=No Shuffle
TTITLE1=Headhunter
TTITLE2=This World Must Be Destroyed
TTITLE3=Moldavia
TTITLE4=Im Rhythmus Bleiben
TTITLE5=Slo-Mo
TTITLE6=Gripped By Fear
TTITLE7=First In-First Out
TTITLE8=Welcome to Paradise
TTITLE9=Masterhit
TTITLE10=Soul Manager
TTITLE11=What You Hear Is What You Get
EXTD=
EXTT0=
EXTT1=
EXTT2=
EXTT3=
EXTT4=
EXTT5=
EXTT6=
EXTT7=
EXTT8=
EXTT9=
EXTT10=
EXTT11=
PLAYORDER=
